<svg width="16" height="12" viewBox="0 0 16 12" fill="none" xmlns="http://www.w3.org/2000/svg">
<path d="M1.125 0H6.75C7.04837 0 7.33452 0.122916 7.5455 0.341709C7.75647 0.560501 7.875 0.857247 7.875 1.16667C7.875 1.47609 7.75647 1.77283 7.5455 1.99162C7.33452 2.21042 7.04837 2.33333 6.75 2.33333H1.125C0.826631 2.33333 0.540483 2.21042 0.329505 1.99162C0.118526 1.77283 0 1.47609 0 1.16667C0 0.857247 0.118526 0.560501 0.329505 0.341709C0.540483 0.122916 0.826631 0 1.125 0ZM9 9.33333H14.625C14.9234 9.33333 15.2095 9.45625 15.4205 9.67504C15.6315 9.89383 15.75 10.1906 15.75 10.5C15.75 10.8094 15.6315 11.1062 15.4205 11.325C15.2095 11.5437 14.9234 11.6667 14.625 11.6667H9C8.70163 11.6667 8.41548 11.5437 8.2045 11.325C7.99353 11.1062 7.875 10.8094 7.875 10.5C7.875 10.1906 7.99353 9.89383 8.2045 9.67504C8.41548 9.45625 8.70163 9.33333 9 9.33333ZM1.125 4.66667H14.625C14.9234 4.66667 15.2095 4.78958 15.4205 5.00838C15.6315 5.22717 15.75 5.52391 15.75 5.83333C15.75 6.14275 15.6315 6.4395 15.4205 6.65829C15.2095 6.87708 14.9234 7 14.625 7H1.125C0.826631 7 0.540483 6.87708 0.329505 6.65829C0.118526 6.4395 0 6.14275 0 5.83333C0 5.52391 0.118526 5.22717 0.329505 5.00838C0.540483 4.78958 0.826631 4.66667 1.125 4.66667Z" fill="url(#paint0_linear_5026_4608)"/>
<defs>
<linearGradient id="paint0_linear_5026_4608" x1="7.875" y1="0" x2="7.875" y2="11.6667" gradientUnits="userSpaceOnUse">
<stop stop-color="#102D29"/>
<stop offset="1" stop-color="#B4A186"/>
</linearGradient>
</defs>
</svg>
